<svg xmlns="http://www.w3.org/2000/svg" width="25" height="25" viewBox="0 0 25 25" fill="none"><rect x="0.0820312" y="0.731445" width="24.0957" height="24.0957" rx="3.57015" fill="#BD95FF"></rect><path d="M12.2521 17.9176C10.1957 17.9176 8.61912 17.0779 7.65946 15.9297L8.96185 14.5245C9.78441 15.4499 10.9154 16.0154 12.1836 16.0154C13.5888 16.0154 14.4627 15.3128 14.4627 14.2846C14.4627 13.2392 13.5888 12.6909 11.9265 12.6909L10.607 12.708V10.8572H11.9265C13.3146 10.8744 14.2228 10.3089 14.2228 9.28066C14.2228 8.321 13.2974 7.65267 12.0293 7.65267C10.864 7.65267 9.97292 8.21818 9.16749 9.10929L7.89938 7.8069C8.8419 6.62447 10.2128 5.73336 12.2178 5.73336C14.7198 5.73336 16.382 7.07002 16.382 8.93792C16.382 10.3603 15.4224 11.2856 14.1543 11.6627C15.4053 11.954 16.6391 12.8622 16.6391 14.4559C16.6391 16.4781 14.9083 17.9176 12.2521 17.9176Z" fill="white"></path></svg>