<svg xmlns="http://www.w3.org/2000/svg" width="25" height="25" viewBox="0 0 25 25" fill="none"><rect x="0.832275" y="0.709961" width="24.0034" height="24.0034" rx="3.55646" fill="#BD95FF"></rect><path d="M12.7373 18.9168C10.8253 18.9168 9.39137 18.1998 8.35004 17.1072L9.61329 15.5879C10.5181 16.4756 11.5935 17.0731 12.7714 17.0731C14.2054 17.0731 15.1102 16.1513 15.1102 15.0075C15.1102 13.8125 14.1713 13.0102 12.7714 13.0102C11.8496 13.0102 11.0473 13.3175 10.3815 13.8296L8.93045 13.215L9.10116 6.98412H16.6124V8.93021H11.0985L10.996 11.9518C11.5935 11.5421 12.3617 11.2348 13.3689 11.2348C15.4516 11.2348 17.244 12.5663 17.244 14.9221C17.244 17.3462 15.4174 18.9168 12.7373 18.9168Z" fill="white"></path></svg>