<svg xmlns="http://www.w3.org/2000/svg" width="52" height="29" viewBox="0 0 52 29" fill="none"><path d="M6.78599 3.5808C7.63303 3.5808 8.31955 2.89415 8.31955 2.04723C8.31955 1.20032 7.63303 0.513672 6.78599 0.513672C6.78458 0.513672 6.78331 0.513872 6.78191 0.513872C3.39605 0.516077 0.651855 3.26148 0.651855 6.64791C0.651855 10.0358 3.39826 12.7821 6.78599 12.7821C7.63303 12.7821 8.31955 12.0954 8.31955 11.2485C8.31955 10.4016 7.63303 9.71494 6.78599 9.71494L6.78458 9.71503C5.0914 9.71426 3.71888 8.34136 3.71888 6.64791C3.71888 4.954 5.09208 3.5808 6.78599 3.5808Z" fill="#0DC167"></path><path d="M37.0298 3.66859L37.0311 3.66869C37.8781 3.66869 38.5647 2.98214 38.5647 2.13512C38.5647 1.28811 37.8781 0.601562 37.0311 0.601562C33.6433 0.601562 30.897 3.34796 30.897 6.7357C30.897 10.1222 33.6412 12.8676 37.027 12.8698C37.0284 12.8698 37.0297 12.87 37.0311 12.87C37.8781 12.87 38.5647 12.1833 38.5647 11.3364C38.5647 10.4895 37.8781 9.80283 37.0311 9.80283C35.3372 9.80283 33.964 8.42966 33.964 6.7357C33.964 5.04219 35.3365 3.66929 37.0298 3.66859Z" fill="#0DC167"></path><path d="M15.3271 0.512695C11.9393 0.512695 9.19287 3.2591 9.19287 6.64694V11.2476C9.19287 12.0945 9.87943 12.7812 10.7264 12.7812C11.5734 12.7812 12.26 12.0946 12.26 11.2476V6.64694C12.26 4.95302 13.6332 3.57982 15.3271 3.57982C16.1741 3.57982 16.8607 2.89327 16.8607 2.04626C16.8607 1.19924 16.1741 0.512695 15.3271 0.512695Z" fill="#0DC167"></path><path d="M23.8709 0.514648C20.4831 0.514648 17.7368 3.26105 17.7368 6.64879C17.7368 10.0144 20.4476 12.7457 23.8049 12.7814C24.6519 12.7814 25.3385 12.0948 25.3385 11.2478C25.3385 10.4008 24.6519 9.71424 23.8049 9.71424C22.1416 9.67895 20.8039 8.32059 20.8039 6.64879C20.8039 4.95488 22.1771 3.58167 23.8711 3.58167C25.565 3.58167 26.9382 4.95488 26.9382 6.64879C26.9382 7.34265 26.7063 7.9815 26.3177 8.49526C26.0618 8.76929 25.9039 9.1361 25.9039 9.54062C25.9039 10.3875 26.5905 11.0742 27.4375 11.0742C27.9179 11.0742 28.346 10.853 28.6272 10.5073C28.6284 10.5058 28.6307 10.5039 28.6308 10.5059C28.631 10.5079 28.6337 10.5114 28.635 10.5098C29.4909 9.45539 30.0053 8.11272 30.0053 6.64879C30.0052 3.26105 27.2588 0.514648 23.8709 0.514648Z" fill="#0DC167"></path><path d="M45.5751 0.601562C42.1872 0.601562 39.4409 3.34797 39.4409 6.73573C39.4409 10.1013 42.1517 12.8326 45.509 12.8683C46.356 12.8683 47.0424 12.1817 47.0424 11.3347C47.0424 10.4877 46.356 9.80113 45.509 9.80113H45.508C43.8452 9.76534 42.508 8.40721 42.508 6.73582C42.508 5.04189 43.8813 3.66869 45.5752 3.66869C47.2689 3.66869 48.6422 5.04189 48.6422 6.73582C48.6422 7.42967 48.4103 8.06853 48.022 8.58228C47.766 8.85631 47.6078 9.22313 47.6078 9.62764C47.6078 10.4746 48.2947 11.1612 49.1415 11.1612C49.6218 11.1612 50.05 10.94 50.3314 10.5943C50.3327 10.5928 50.335 10.5909 50.335 10.5929C50.335 10.5949 50.3377 10.5984 50.3391 10.5968C51.1949 9.54242 51.7092 8.19974 51.7092 6.73582C51.7092 3.34797 48.963 0.601562 45.5751 0.601562Z" fill="#0DC167"></path><path fill-rule="evenodd" clip-rule="evenodd" d="M5.03321 19.4933C3.59964 19.4933 2.32737 20.1817 1.52813 21.2459V16.3572C1.52722 16.1156 1.33149 15.9199 1.08999 15.9199C0.848043 15.9199 0.652309 16.1157 0.651855 16.3572V23.8749C0.651855 26.2947 2.61327 28.2565 5.03321 28.2565C7.45314 28.2565 9.41501 26.2947 9.41501 23.8749C9.41501 21.455 7.45314 19.4933 5.03321 19.4933ZM5.03321 27.3801C3.09717 27.3801 1.52813 25.8107 1.52813 23.8749C1.52813 21.939 3.09717 20.3697 5.03321 20.3697C6.96925 20.3697 8.53828 21.939 8.53828 23.8749C8.53828 25.8107 6.96925 27.3801 5.03321 27.3801ZM11.646 16.4262C11.6455 16.1846 11.4498 15.9889 11.2079 15.9889C10.9664 15.9889 10.7706 16.1847 10.7702 16.4262L10.7697 27.8182C10.7697 28.0602 10.9659 28.2565 11.2079 28.2565C11.4498 28.2565 11.6465 28.0603 11.6465 27.8182L11.646 16.4262ZM12.8616 23.8749C12.8616 21.455 14.8235 19.4933 17.2434 19.4933C19.6629 19.4933 21.6248 21.455 21.6248 23.8749C21.6248 26.2948 19.6629 28.2565 17.2434 28.2565C14.8235 28.2565 12.8616 26.2948 12.8616 23.8749ZM13.7379 23.8749C13.7379 25.8108 15.3074 27.3801 17.2434 27.3801C19.179 27.3801 20.7485 25.8108 20.7485 23.8749C20.7485 21.939 19.179 20.3697 17.2434 20.3697C15.3074 20.3697 13.7379 21.939 13.7379 23.8749ZM27.2331 27.3801C25.2975 27.3801 23.728 25.8108 23.728 23.8749C23.728 21.939 25.2975 20.3697 27.2331 20.3697C27.475 20.3697 27.6717 20.1735 27.6717 19.9315C27.6717 19.6894 27.4755 19.4933 27.2331 19.4933C24.8136 19.4933 22.8517 21.455 22.8517 23.8749C22.8517 26.2948 24.8136 28.2565 27.2331 28.2565C27.475 28.2565 27.6717 28.0604 27.6717 27.8183C27.6717 27.5762 27.475 27.3801 27.2331 27.3801ZM32.9624 23.0761L35.8472 27.5827C35.9772 27.7865 35.9179 28.0569 35.714 28.1873C35.5105 28.3177 35.24 28.2585 35.1096 28.0552H35.1091L32.3281 23.7106L30.5162 25.5225V27.8182C30.5162 28.0603 30.32 28.2565 30.078 28.2565C29.8361 28.2565 29.6399 28.0602 29.6399 27.8182V16.4262C29.6403 16.1847 29.8361 15.9889 30.078 15.9889C30.32 15.9889 30.5157 16.1846 30.5162 16.4262V24.2831L35.1684 19.6307L35.1689 19.6308C35.3397 19.4602 35.617 19.4604 35.7878 19.6313C35.9586 19.8022 35.9586 20.0791 35.7883 20.2503L32.9624 23.0761Z" fill="white"></path></svg>