<svg xmlns="http://www.w3.org/2000/svg" width="37" height="41" viewBox="0 0 37 41" fill="none"><g clip-path="url(#clip0_127_595)"><path d="M36.5653 35.7685C36.5802 38.5148 34.3513 40.751 31.5891 40.7658C31.3838 40.7675 31.1768 40.756 30.9731 40.7313C28.4096 40.3545 26.5317 38.138 26.5947 35.5645V5.97542C26.5334 3.3986 28.4163 1.18213 30.9814 0.80861C33.7253 0.489386 36.2109 2.44093 36.5322 5.16749C36.5554 5.36824 36.567 5.56899 36.5653 5.77138V35.7685Z" fill="#F9AB00"></path><path d="M5.18781 30.8653C7.9417 30.8653 10.174 33.0834 10.174 35.8198C10.174 38.5563 7.9417 40.7744 5.18781 40.7744C2.43392 40.7744 0.20166 38.5563 0.20166 35.8198C0.20166 33.0834 2.43392 30.8653 5.18781 30.8653ZM18.3065 15.8503C15.5393 16.0017 13.3932 18.307 13.4578 21.0599V34.3669C13.4578 37.9787 15.0574 40.1705 17.4007 40.6378C20.1049 41.1825 22.7395 39.4465 23.2877 36.7594C23.3556 36.4303 23.3887 36.0963 23.387 35.7606V20.8295C23.392 18.0832 21.1564 15.8536 18.3926 15.8486C18.3644 15.8486 18.3346 15.8486 18.3065 15.8503Z" fill="#E37400"></path></g><defs><clipPath id="clip0_127_595"><rect width="36.3636" height="40" fill="white" transform="translate(0.20166 0.773438)"></rect></clipPath></defs></svg>