<svg xmlns="http://www.w3.org/2000/svg" width="40" height="41" viewBox="0 0 40 41" fill="none"><g clip-path="url(#clip0_127_586)"><path d="M0.920152 28.8065L14.2002 6.07129C15.887 7.06439 24.3933 11.772 25.767 12.6672L12.487 35.4037C11.0346 37.3223 -0.919848 31.7182 0.920152 28.8051V28.8065Z" fill="#FBBC04"></path><path d="M39.0758 28.8059L25.7958 6.07215C23.9392 2.9825 19.9406 1.85974 16.6564 3.68456C13.3723 5.50939 12.3723 9.44043 14.2289 12.668L27.5089 35.4046C29.3654 38.4928 33.364 39.6156 36.6482 37.7908C39.7889 35.9659 40.9323 31.8956 39.0758 28.8087V28.8059Z" fill="#4285F4"></path><path d="M6.66633 38.6693C10.348 38.6693 13.3325 35.7589 13.3325 32.1687C13.3325 28.5784 10.348 25.668 6.66633 25.668C2.98468 25.668 0.00012207 28.5784 0.00012207 32.1687C0.00012207 35.7589 2.98468 38.6693 6.66633 38.6693Z" fill="#34A853"></path></g><defs><clipPath id="clip0_127_586"><rect width="40" height="40" fill="white" transform="translate(0.00012207 0.774414)"></rect></clipPath></defs></svg>