<svg xmlns="http://www.w3.org/2000/svg" width="81" height="66" viewBox="0 0 81 66" fill="none"><path d="M71.235 0.195312H9.98502C4.81564 0.195312 0.610016 4.40094 0.610016 9.57031V17.3039L35.0149 42.8947C36.6881 44.1392 38.6491 44.7616 40.61 44.7616C42.571 44.7616 44.5319 44.1394 46.2052 42.8947L80.61 17.3039V9.57031C80.61 4.40094 76.4044 0.195312 71.235 0.195312ZM74.36 14.1634L42.4752 37.8797C41.3596 38.7095 39.8605 38.7095 38.745 37.8797L6.86002 14.1634V9.57031C6.86002 7.84719 8.26189 6.44531 9.98502 6.44531H71.235C72.9581 6.44531 74.36 7.84719 74.36 9.57031V14.1634ZM74.36 29.742L80.61 25.0933V55.8203C80.61 60.9897 76.4044 65.1953 71.235 65.1953H9.98502C4.81564 65.1953 0.610016 60.9897 0.610016 55.8203V25.0933L6.86002 29.742V55.8203C6.86002 57.5434 8.26189 58.9453 9.98502 58.9453H71.235C72.9581 58.9453 74.36 57.5434 74.36 55.8203V29.742Z" fill="#BD95FF"></path></svg>