<svg xmlns="http://www.w3.org/2000/svg" width="69" height="69" viewBox="0 0 69 69" fill="none"><circle cx="34.4569" cy="34.5067" r="33.4569" fill="#101010"></circle><circle cx="34.4569" cy="34.5067" r="33.4569" fill="url(#paint0_radial_222_171)"></circle><circle cx="34.4569" cy="34.5067" r="33.4569" stroke="url(#paint1_linear_222_171)" stroke-width="2"></circle><path d="M50.0393 36.0661L41.1468 40.5123C38.6938 41.7388 37.4674 42.352 36.1809 42.5934C35.0415 42.8071 33.8723 42.8071 32.7329 42.5934C31.4464 42.352 30.2199 41.7388 27.767 40.5123L18.8745 36.0661M50.0393 43.8572L41.1468 48.3035C38.6938 49.53 37.4674 50.1432 36.1809 50.3846C35.0415 50.5983 33.8723 50.5983 32.7329 50.3846C31.4464 50.1432 30.2199 49.53 27.767 48.3035L18.8745 43.8572M24.6779 31.1766L29.997 33.8361C31.6323 34.6537 32.4499 35.0626 33.3075 35.2235C34.0671 35.366 34.8466 35.366 35.6062 35.2235C36.4639 35.0626 37.2815 34.6537 38.9168 33.8361L44.2359 31.1766C47.1068 29.7411 48.5423 29.0234 49.0029 28.0521C49.4038 27.2069 49.4038 26.2263 49.0029 25.3811C48.5423 24.4099 47.1068 23.6922 44.2359 22.2567L38.9168 19.5972C37.2815 18.7795 36.4639 18.3707 35.6062 18.2098C34.8466 18.0673 34.0671 18.0673 33.3075 18.2098C32.4499 18.3707 31.6323 18.7795 29.9969 19.5972L24.6779 22.2567C21.807 23.6922 20.3715 24.4099 19.9109 25.3811C19.51 26.2263 19.51 27.2069 19.9109 28.0521C20.3715 29.0234 21.807 29.7411 24.6779 31.1766Z" stroke="#BD95FF" stroke-width="2.33736" stroke-linecap="round" stroke-linejoin="round"></path><defs><radialGradient id="paint0_radial_222_171" cx="0" cy="0" r="1" gradientUnits="userSpaceOnUse" gradientTransform="translate(22.5213 2.30851) rotate(77.4017) scale(30.3774 30.9097)"><stop stop-color="#D9D9D9" stop-opacity="0.2"></stop><stop offset="1" stop-color="#D9D9D9" stop-opacity="0"></stop></radialGradient><linearGradient id="paint1_linear_222_171" x1="34.4569" y1="0.0498047" x2="34.4569" y2="68.9636" gradientUnits="userSpaceOnUse"><stop stop-color="#585858"></stop><stop offset="1" stop-color="#585858" stop-opacity="0"></stop></linearGradient></defs></svg>