<svg xmlns="http://www.w3.org/2000/svg" width="82" height="81" viewBox="0 0 82 81" fill="none"><path d="M69.1442 12.2561C61.5928 4.76892 51.5471 0.642944 40.8556 0.638672C30.1881 0.638672 20.1265 4.76099 12.5254 12.2463C4.91077 19.7445 0.713426 29.7091 0.703613 40.2682V40.2877C0.70484 46.6787 2.392 53.1259 5.59459 59.0109L0.813392 80.6387L22.7955 75.6625C28.3629 78.4548 34.5749 79.927 40.8403 79.9294H40.8562C51.5219 79.9294 61.5835 75.8065 69.1859 68.3206C76.8072 60.8163 81.0064 50.8645 81.0113 40.2987C81.0144 29.8074 76.8005 19.8483 69.1442 12.2561ZM40.8556 73.6855H40.8415C35.2158 73.6831 29.6416 72.2775 24.7224 69.6194L23.6829 69.0579L9.0658 72.3666L12.2408 58.0062L11.6287 56.9558C8.5856 51.733 6.97756 45.9677 6.97756 40.281C6.98921 21.8746 22.1853 6.88257 40.8544 6.88257C49.8734 6.88623 58.3478 10.3658 64.7162 16.6793C71.1809 23.0905 74.7398 31.4779 74.7368 40.2969C74.7294 58.7075 59.5303 73.6855 40.8556 73.6855Z" fill="#BD95FF"></path><path d="M29.9299 22.8045H28.1698C27.5571 22.8045 26.5623 23.0327 25.7209 23.944C24.8789 24.8558 22.506 27.0598 22.506 31.5422C22.506 36.0247 25.7976 40.3557 26.2563 40.9642C26.7157 41.5722 32.61 51.0643 41.9455 54.7161C49.7042 57.7507 51.2834 57.1471 52.9669 56.9951C54.651 56.8438 58.4012 54.7918 59.1666 52.6647C59.932 50.5376 59.932 48.7139 59.7026 48.333C59.4726 47.9534 58.86 47.7257 57.9419 47.2704C57.0232 46.8145 52.5216 44.5732 51.6796 44.2687C50.8375 43.9653 50.2255 43.8134 49.6128 44.7258C49.0001 45.6365 47.1964 47.7434 46.6604 48.3513C46.125 48.9598 45.589 49.0361 44.6703 48.5802C43.7516 48.1231 40.8237 47.1441 37.3151 44.041C34.5842 41.6259 32.6891 38.546 32.1531 37.6342C31.6177 36.7229 32.096 36.2297 32.5566 35.775C32.9694 35.3673 33.5268 34.8095 33.9862 34.2778C34.4449 33.7456 34.5756 33.366 34.8822 32.7581C35.1882 32.1502 35.0349 31.6179 34.8055 31.1626C34.5756 30.7067 32.813 26.2017 31.9961 24.3999C31.308 22.8826 30.5843 22.8313 29.9299 22.8045Z" fill="#BD95FF"></path></svg>