<svg xmlns="http://www.w3.org/2000/svg" width="70" height="69" viewBox="0 0 70 69" fill="none"><circle cx="35.0273" cy="34.5067" r="33.4569" fill="#101010"></circle><circle cx="35.0273" cy="34.5067" r="33.4569" fill="url(#paint0_radial_23_209)"></circle><circle cx="35.0273" cy="34.5067" r="33.4569" stroke="url(#paint1_linear_23_209)" stroke-width="2"></circle><path d="M28.6762 45.4367L25.5567 42.3172C23.3432 40.1037 22.2365 38.997 21.7588 37.7008C21.338 36.5587 21.2575 35.3191 21.5271 34.1321C21.8331 32.785 22.7874 31.5444 24.696 29.0633L30.933 20.9551C32.2903 19.1906 32.969 18.3084 33.7961 17.9913C34.5209 17.7135 35.3229 17.7135 36.0477 17.9913C36.8749 18.3084 37.5535 19.1906 38.9108 20.9551L45.1479 29.0633C47.0565 31.5444 48.0108 32.785 48.3168 34.1321C48.5864 35.3191 48.5059 36.5587 48.085 37.7008C47.6073 38.997 46.5006 40.1037 44.2871 42.3172L41.1676 45.4367M34.9219 18.8924V26.6995M38.0448 34.5067C38.0448 36.2314 36.6466 37.6296 34.9219 37.6296C33.1972 37.6296 31.7991 36.2314 31.7991 34.5067C31.7991 32.782 33.1972 31.3838 34.9219 31.3838C36.6466 31.3838 38.0448 32.782 38.0448 34.5067ZM27.8955 50.121H41.9484C43.2419 50.121 44.2905 49.0724 44.2905 47.7789V47.7789C44.2905 46.4853 43.2419 45.4367 41.9484 45.4367H27.8955C26.602 45.4367 25.5533 46.4853 25.5533 47.7789V47.7789C25.5533 49.0724 26.6019 50.121 27.8955 50.121Z" stroke="#BD95FF" stroke-width="2.35901" stroke-linecap="round" stroke-linejoin="round"></path><defs><radialGradient id="paint0_radial_23_209" cx="0" cy="0" r="1" gradientUnits="userSpaceOnUse" gradientTransform="translate(23.0917 2.30851) rotate(77.4017) scale(30.3774 30.9097)"><stop stop-color="#D9D9D9" stop-opacity="0.2"></stop><stop offset="1" stop-color="#D9D9D9" stop-opacity="0"></stop></radialGradient><linearGradient id="paint1_linear_23_209" x1="35.0273" y1="0.0498047" x2="35.0273" y2="68.9636" gradientUnits="userSpaceOnUse"><stop stop-color="#585858"></stop><stop offset="1" stop-color="#585858" stop-opacity="0"></stop></linearGradient></defs></svg>