<svg xmlns="http://www.w3.org/2000/svg" width="70" height="69" viewBox="0 0 70 69" fill="none"><circle cx="35.1706" cy="34.5067" r="33.4569" fill="#101010"></circle><circle cx="35.1706" cy="34.5067" r="33.4569" fill="url(#paint0_radial_23_213)"></circle><circle cx="35.1706" cy="34.5067" r="33.4569" stroke="url(#paint1_linear_23_213)" stroke-width="2"></circle><path d="M45.6007 32.9454H45.6156M45.6007 46.3556H24.0781C21.1522 46.3556 18.7803 43.9837 18.7803 41.0577V41.0577C18.7803 40.692 19.0768 40.3955 19.4425 40.3955H39.6406M21.7603 40.3955V29.0713C21.7603 25.7333 21.7603 24.0644 22.4099 22.7894C22.9813 21.668 23.8931 20.7562 25.0146 20.1848C26.2895 19.5352 27.9585 19.5352 31.2965 19.5352H44.8557C46.913 19.5352 48.5808 21.2029 48.5808 23.2602V23.2602V24.0052M46.3457 32.9454C46.3457 33.3568 46.0122 33.6904 45.6007 33.6904C45.1892 33.6904 44.8557 33.3568 44.8557 32.9454C44.8557 32.5339 45.1892 32.2004 45.6007 32.2004C46.0122 32.2004 46.3457 32.5339 46.3457 32.9454ZM44.4087 46.3556H46.7927C48.4617 46.3556 49.2962 46.3556 49.9337 46.0308C50.4944 45.7451 50.9503 45.2892 51.236 44.7285C51.5608 44.091 51.5608 43.2565 51.5608 41.5875V33.2434C51.5608 31.5744 51.5608 30.7399 51.236 30.1024C50.9503 29.5417 50.4944 29.0858 49.9337 28.8001C49.2962 28.4753 48.4617 28.4753 46.7927 28.4753H44.4087C42.7397 28.4753 41.9052 28.4753 41.2677 28.8001C40.707 29.0858 40.2511 29.5417 39.9654 30.1024C39.6406 30.7399 39.6406 31.5744 39.6406 33.2434V41.5875C39.6406 43.2565 39.6406 44.091 39.9654 44.7285C40.2511 45.2892 40.707 45.7451 41.2677 46.0308C41.9052 46.3556 42.7397 46.3556 44.4087 46.3556Z" stroke="#BD95FF" stroke-width="2.23504" stroke-linecap="round" stroke-linejoin="round"></path><defs><radialGradient id="paint0_radial_23_213" cx="0" cy="0" r="1" gradientUnits="userSpaceOnUse" gradientTransform="translate(23.235 2.30851) rotate(77.4017) scale(30.3774 30.9097)"><stop stop-color="#D9D9D9" stop-opacity="0.2"></stop><stop offset="1" stop-color="#D9D9D9" stop-opacity="0"></stop></radialGradient><linearGradient id="paint1_linear_23_213" x1="35.1706" y1="0.0498047" x2="35.1706" y2="68.9636" gradientUnits="userSpaceOnUse"><stop stop-color="#585858"></stop><stop offset="1" stop-color="#585858" stop-opacity="0"></stop></linearGradient></defs></svg>