<svg xmlns="http://www.w3.org/2000/svg" width="70" height="69" viewBox="0 0 70 69" fill="none"><circle cx="34.5667" cy="34.5067" r="33.4569" fill="#101010"></circle><circle cx="34.5667" cy="34.5067" r="33.4569" fill="url(#paint0_radial_23_217)"></circle><circle cx="34.5667" cy="34.5067" r="33.4569" stroke="url(#paint1_linear_23_217)" stroke-width="2"></circle><path d="M24.7706 33.6901L21.3746 36.237C20.2253 37.0991 19.6506 37.5301 19.2361 38.0764C18.8689 38.5602 18.595 39.108 18.4282 39.692C18.2399 40.3514 18.2399 41.0697 18.2399 42.5065L18.2399 48.3841L24.7706 46.7514M44.3625 33.6901L47.7585 36.237C48.9079 37.0991 49.4826 37.5301 49.8971 38.0764C50.2642 38.5602 50.5381 39.108 50.7049 39.692C50.8932 40.3514 50.8932 41.0697 50.8932 42.5065L50.8932 48.3841L44.3625 46.7514M34.5666 51.6494L34.5666 46.7514M37.8319 33.6909C37.8319 35.4943 36.3699 36.9562 34.5666 36.9562C32.7632 36.9562 31.3012 35.4943 31.3012 33.6909C31.3012 31.8875 32.7632 30.4256 34.5666 30.4256C36.3699 30.4256 37.8319 31.8875 37.8319 33.6909ZM29.2422 22.2942L28.1205 23.3329C26.8862 24.4757 26.2691 25.0471 25.8268 25.7271C25.4347 26.3298 25.1449 26.9931 24.969 27.6903C24.7706 28.4768 24.7706 29.3178 24.7706 31L24.7706 41.8542C24.7706 44.8971 24.7706 46.4186 25.2677 47.6187C25.9305 49.2189 27.2019 50.4902 28.8021 51.1531C30.0022 51.6502 31.5237 51.6502 34.5666 51.6502V51.6502C37.6095 51.6502 39.1309 51.6502 40.3311 51.1531C41.9313 50.4902 43.2026 49.2189 43.8654 47.6187C44.3625 46.4186 44.3625 44.8971 44.3625 41.8542L44.3625 31C44.3625 29.3178 44.3625 28.4768 44.1641 27.6903C43.9882 26.9931 43.6984 26.3298 43.3064 25.7271C42.8641 25.0471 42.2469 24.4757 41.0127 23.3329L39.8909 22.2942C38.0138 20.5561 37.0752 19.6871 36.0083 19.3585C35.0689 19.0691 34.0642 19.0691 33.1248 19.3585C32.0579 19.6871 31.1194 20.5561 29.2422 22.2942Z" stroke="#BD95FF" stroke-width="2.44899" stroke-linecap="round" stroke-linejoin="round"></path><defs><radialGradient id="paint0_radial_23_217" cx="0" cy="0" r="1" gradientUnits="userSpaceOnUse" gradientTransform="translate(22.6311 2.30851) rotate(77.4017) scale(30.3774 30.9097)"><stop stop-color="#D9D9D9" stop-opacity="0.2"></stop><stop offset="1" stop-color="#D9D9D9" stop-opacity="0"></stop></radialGradient><linearGradient id="paint1_linear_23_217" x1="34.5667" y1="0.0498047" x2="34.5667" y2="68.9636" gradientUnits="userSpaceOnUse"><stop stop-color="#585858"></stop><stop offset="1" stop-color="#585858" stop-opacity="0"></stop></linearGradient></defs></svg>