<svg xmlns="http://www.w3.org/2000/svg" width="70" height="69" viewBox="0 0 70 69" fill="none"><circle cx="34.7098" cy="34.5067" r="33.4569" fill="#101010"></circle><circle cx="34.7098" cy="34.5067" r="33.4569" fill="url(#paint0_radial_23_221)"></circle><circle cx="34.7098" cy="34.5067" r="33.4569" stroke="url(#paint1_linear_23_221)" stroke-width="2"></circle><path d="M26.6287 39.8952C26.6287 42.8707 29.0408 45.2827 32.0162 45.2827H38.0949C40.6886 45.2827 42.7912 43.1801 42.7912 40.5864C42.7912 38.565 41.4977 36.7703 39.58 36.1311L29.8399 32.8844C27.9222 32.2452 26.6287 30.4505 26.6287 28.4291C26.6287 25.8354 28.7313 23.7328 31.325 23.7328H37.4037C40.3791 23.7328 42.7912 26.1449 42.7912 29.1203M34.7099 21.0391L34.7099 47.9765" stroke="#BD95FF" stroke-width="2.0203" stroke-linecap="round" stroke-linejoin="round"></path><defs><radialGradient id="paint0_radial_23_221" cx="0" cy="0" r="1" gradientUnits="userSpaceOnUse" gradientTransform="translate(22.7742 2.30851) rotate(77.4017) scale(30.3774 30.9097)"><stop stop-color="#D9D9D9" stop-opacity="0.2"></stop><stop offset="1" stop-color="#D9D9D9" stop-opacity="0"></stop></radialGradient><linearGradient id="paint1_linear_23_221" x1="34.7098" y1="0.0498047" x2="34.7098" y2="68.9636" gradientUnits="userSpaceOnUse"><stop stop-color="#585858"></stop><stop offset="1" stop-color="#585858" stop-opacity="0"></stop></linearGradient></defs></svg>