<svg xmlns="http://www.w3.org/2000/svg" width="37" height="56" viewBox="0 0 37 56" fill="none"><g clip-path="url(#clip0_19_99)"><path d="M9.48382 55.8293C14.5121 55.8293 18.5929 51.7253 18.5929 46.6685V37.5078H9.48382C4.45558 37.5078 0.374695 41.6118 0.374695 46.6685C0.374695 51.7253 4.45558 55.8293 9.48382 55.8293Z" fill="#0ACF83"></path><path d="M0.374695 28.3473C0.374695 23.2905 4.45558 19.1865 9.48382 19.1865H18.5929V37.508H9.48382C4.45558 37.508 0.374695 33.404 0.374695 28.3473Z" fill="#A259FF"></path><path d="M0.374817 10.026C0.374817 4.96924 4.45571 0.865234 9.48394 0.865234H18.5931V19.1867H9.48394C4.45571 19.1867 0.374817 15.0827 0.374817 10.026Z" fill="#F24E1E"></path><path d="M18.5929 0.865234H27.702C32.7303 0.865234 36.8111 4.96924 36.8111 10.026C36.8111 15.0827 32.7303 19.1867 27.702 19.1867H18.5929V0.865234Z" fill="#FF7262"></path><path d="M36.8111 28.3473C36.8111 33.404 32.7303 37.508 27.702 37.508C22.6738 37.508 18.5929 33.404 18.5929 28.3473C18.5929 23.2905 22.6738 19.1865 27.702 19.1865C32.7303 19.1865 36.8111 23.2905 36.8111 28.3473Z" fill="#1ABCFE"></path></g><defs><clipPath id="clip0_19_99"><rect width="36.4438" height="54.9644" fill="white" transform="translate(0.370972 0.865234)"></rect></clipPath></defs></svg>