<svg xmlns="http://www.w3.org/2000/svg" width="56" height="56" viewBox="0 0 56 56" fill="none"><g clip-path="url(#clip0_19_105)"><rect x="15.3648" y="14.7871" width="27.7535" height="28.5353" fill="white"></rect><mask id="mask0_19_105" style="mask-type:luminance" maskUnits="userSpaceOnUse" x="0" y="0" width="56" height="56"><path d="M55.9474 55.8301H0.379028V0.865665H55.9474V55.8301Z" fill="white"></path></mask><g mask="url(#mask0_19_105)"><path d="M28.1632 55.8301C12.8169 55.8301 0.379028 43.5274 0.379028 28.3479C0.379028 13.1734 12.8169 0.865665 28.1632 0.865665C43.5096 0.865665 55.9474 13.1684 55.9474 28.3479C55.9424 43.5274 43.5044 55.8301 28.1632 55.8301ZM21.2184 16.9007H16.5903V39.8H21.2184V16.9007ZM39.7362 16.9007H25.8466V21.4786H39.7362V16.9007ZM39.7362 26.0615H25.8466V30.6393H39.7362V26.0615ZM39.7362 35.2221H25.8466V39.8H39.7362V35.2221Z" fill="#C24075"></path></g></g><defs><clipPath id="clip0_19_105"><rect width="55.5684" height="54.9644" fill="white" transform="matrix(1 0 0 -1 0.379028 55.8301)"></rect></clipPath></defs></svg>