<svg xmlns="http://www.w3.org/2000/svg" width="186" height="74" viewBox="0 0 186 74" fill="none"><path d="M2.98871 71.6535L0.406553 64.1048H1.37349L3.46119 70.2141L5.46099 64.1048H6.41694L8.41674 70.2141L10.5044 64.1048H11.4714L8.88922 71.6535H8.04315L5.94446 65.2255L3.83478 71.6535H2.98871ZM18.8229 64.9179H14.2739V67.4012H18.3724V68.2143H14.2739V70.8404H18.8229V71.6535H13.4058V64.1048H18.8229V64.9179ZM21.1188 71.6535V64.1048H24.58C25.7997 64.1048 26.6567 64.8849 26.6567 65.9837C26.6567 66.7858 26.2612 67.2473 25.5799 67.6429C26.448 68.0824 26.9534 68.7637 26.9534 69.5877C26.9534 70.7964 26.0194 71.6535 24.7119 71.6535H21.1188ZM21.9759 67.3023H24.3603C25.1954 67.3023 25.7887 66.7968 25.7887 66.0936C25.7887 65.3904 25.1954 64.8849 24.3603 64.8849H21.9759V67.3023ZM21.9759 70.8733H24.4921C25.4261 70.8733 26.0854 70.291 26.0854 69.4779C26.0854 68.6648 25.4261 68.0824 24.4921 68.0824H21.9759V70.8733ZM33.1141 71.6535V64.1048H35.6633C38.0587 64.1048 39.7508 65.6651 39.7508 67.8736C39.7508 70.0822 38.0587 71.6535 35.6633 71.6535H33.1141ZM33.9712 70.8733H35.6633C37.5532 70.8733 38.8828 69.6317 38.8828 67.8736C38.8828 66.1266 37.5532 64.8849 35.6633 64.8849H33.9712V70.8733ZM47.3953 64.9179H42.8463V67.4012H46.9448V68.2143H42.8463V70.8404H47.3953V71.6535H41.9783V64.1048H47.3953V64.9179ZM52.1416 71.7743C50.8999 71.7743 49.922 71.3238 49.1638 70.5767L49.7022 69.9064C50.3395 70.5437 51.1197 70.9942 52.1745 70.9942C53.3392 70.9942 53.9326 70.3569 53.9326 69.6756C53.9326 68.8735 53.2184 68.5549 51.8998 68.2472C50.3835 67.8956 49.4275 67.4231 49.4275 66.1156C49.4275 64.9069 50.5044 63.9619 51.9548 63.9619C53.0755 63.9619 53.9106 64.4015 54.6029 65.0388L54.0754 65.709C53.4491 65.1047 52.7019 64.7421 51.9108 64.7421C50.9768 64.7421 50.2956 65.3574 50.2956 66.0496C50.2956 66.8298 51.0428 67.1045 52.3284 67.4121C53.7678 67.7528 54.8006 68.2692 54.8006 69.5987C54.8006 70.7964 53.8996 71.7743 52.1416 71.7743ZM56.9244 71.6535V64.1048H57.7814V71.6535H56.9244ZM63.6636 68.489V67.6759H66.6853V70.6316C65.982 71.3348 64.7953 71.7853 63.7515 71.7853C61.6638 71.7853 59.8837 69.9943 59.8837 67.8736C59.8837 65.753 61.6638 63.9729 63.7515 63.9729C64.7953 63.9729 65.982 64.4124 66.6853 65.1267L66.1029 65.72C65.5535 65.1376 64.5756 64.7641 63.7515 64.7641C62.1253 64.7641 60.7518 66.1925 60.7518 67.8736C60.7518 69.5658 62.1253 70.9942 63.7515 70.9942C64.4547 70.9942 65.2678 70.7195 65.8282 70.291V68.489H63.6636ZM69.1918 71.6535V64.1048H70.0488L74.7297 70.247V64.1048H75.5867V71.6535H74.7297L70.0488 65.5112V71.6535H69.1918ZM83.5588 64.9179H79.0098V67.4012H83.1083V68.2143H79.0098V70.8404H83.5588V71.6535H78.1418V64.1048H83.5588V64.9179ZM91.5355 66.5221C91.5355 67.7088 90.6785 68.6098 89.4808 68.8625L91.4366 71.6535H90.4587L88.5468 68.9395H86.547V71.6535H85.69V64.1048H88.7556C90.3159 64.1048 91.5355 65.1047 91.5355 66.5221ZM86.547 64.9179V68.1264H88.6017C89.8324 68.1264 90.6675 67.533 90.6675 66.5221C90.6675 65.5112 89.8324 64.9179 88.6017 64.9179H86.547Z" fill="white"></path><path d="M97.2539 71.6535V64.1048H100.539C102.155 64.1048 103.363 65.1376 103.363 66.61C103.363 68.0824 102.155 69.1153 100.539 69.1153H98.6274V71.6535H97.2539ZM98.6274 67.8517H100.386C101.319 67.8517 101.968 67.3792 101.968 66.61C101.968 65.8409 101.319 65.3684 100.386 65.3684H98.6274V67.8517ZM111.278 71.6535H109.717L107.937 69.1153H106.476V71.6535H105.103V64.1048H108.388C110.003 64.1048 111.212 65.1376 111.212 66.61C111.212 67.7528 110.476 68.6318 109.388 68.9724L111.278 71.6535ZM106.476 65.3684V67.8517H108.234C109.168 67.8517 109.816 67.3792 109.816 66.61C109.816 65.8409 109.168 65.3684 108.234 65.3684H106.476ZM116.793 71.7853C114.639 71.7853 112.826 69.9943 112.826 67.8736C112.826 65.753 114.639 63.9729 116.793 63.9729C118.936 63.9729 120.749 65.753 120.749 67.8736C120.749 69.9943 118.936 71.7853 116.793 71.7853ZM116.793 70.5327C118.178 70.5327 119.342 69.324 119.342 67.8736C119.342 66.4342 118.178 65.2255 116.793 65.2255C115.398 65.2255 114.222 66.4342 114.222 67.8736C114.222 69.324 115.398 70.5327 116.793 70.5327ZM128.348 65.3574H124.04V67.2693H127.941V68.5219H124.04V71.6535H122.667V64.1048H128.348V65.3574ZM130.226 71.6535V64.1048H131.589V71.6535H130.226ZM136.616 71.7743C135.32 71.7743 134.221 71.3348 133.386 70.5547L134.177 69.5768C134.869 70.2031 135.671 70.5986 136.66 70.5986C137.594 70.5986 138.078 70.1371 138.078 69.5987C138.078 68.9724 137.539 68.7637 136.33 68.478C134.77 68.1154 133.682 67.6649 133.682 66.2474C133.682 64.9289 134.803 63.9619 136.396 63.9619C137.594 63.9619 138.495 64.3685 139.253 65.0168L138.506 66.0277C137.847 65.4563 137.089 65.1376 136.341 65.1376C135.583 65.1376 135.067 65.5991 135.067 66.1266C135.067 66.7419 135.627 66.9616 136.825 67.2363C138.396 67.5879 139.451 68.0934 139.451 69.4669C139.451 70.8184 138.418 71.7743 136.616 71.7743ZM144.154 71.7743C142.857 71.7743 141.758 71.3348 140.923 70.5547L141.714 69.5768C142.407 70.2031 143.209 70.5986 144.198 70.5986C145.132 70.5986 145.615 70.1371 145.615 69.5987C145.615 68.9724 145.077 68.7637 143.868 68.478C142.308 68.1154 141.22 67.6649 141.22 66.2474C141.22 64.9289 142.341 63.9619 143.934 63.9619C145.132 63.9619 146.033 64.3685 146.791 65.0168L146.044 66.0277C145.384 65.4563 144.626 65.1376 143.879 65.1376C143.121 65.1376 142.604 65.5991 142.604 66.1266C142.604 66.7419 143.165 66.9616 144.362 67.2363C145.934 67.5879 146.988 68.0934 146.988 69.4669C146.988 70.8184 145.956 71.7743 144.154 71.7743ZM148.922 71.6535V64.1048H150.285V71.6535H148.922ZM156.202 71.7853C154.048 71.7853 152.235 69.9943 152.235 67.8736C152.235 65.753 154.048 63.9729 156.202 63.9729C158.345 63.9729 160.158 65.753 160.158 67.8736C160.158 69.9943 158.345 71.7853 156.202 71.7853ZM156.202 70.5327C157.586 70.5327 158.751 69.324 158.751 67.8736C158.751 66.4342 157.586 65.2255 156.202 65.2255C154.806 65.2255 153.631 66.4342 153.631 67.8736C153.631 69.324 154.806 70.5327 156.202 70.5327ZM162.175 71.6535V64.1048H163.548L167.537 69.4119V64.1048H168.899V71.6535H167.537L163.548 66.3463V71.6535H162.175ZM176.969 71.6535L176.398 70.291H172.75L172.179 71.6535H170.651L173.805 64.1048H175.332L178.486 71.6535H176.969ZM173.244 69.1043H175.904L174.574 65.9288L173.244 69.1043ZM181.441 70.4009H185.32V71.6535H180.078V64.1048H181.441V70.4009Z" fill="#BD95FF"></path><path d="M67.0529 2.89505H63.5864V4.78741H66.7096V5.40703H63.5864V8.02786H62.9249V2.27543H67.0529V2.89505ZM80.1267 8.12834C78.5358 8.12834 77.1794 6.7635 77.1794 5.14746C77.1794 3.53142 78.5358 2.17495 80.1267 2.17495C81.726 2.17495 83.0658 3.53142 83.0658 5.14746C83.0658 6.7635 81.726 8.12834 80.1267 8.12834ZM80.1267 7.52547C81.366 7.52547 82.4043 6.43694 82.4043 5.14746C82.4043 3.86635 81.366 2.77782 80.1267 2.77782C78.8875 2.77782 77.8408 3.86635 77.8408 5.14746C77.8408 6.43694 78.8875 7.52547 80.1267 7.52547ZM97.9923 4.11755C97.9923 5.02186 97.3392 5.70847 96.4265 5.90105L97.9169 8.02786H97.1717L95.7148 5.95967H94.1908V8.02786H93.5377V2.27543H95.8739C97.0629 2.27543 97.9923 3.0374 97.9923 4.11755ZM94.1908 2.89505V5.34004H95.7566C96.6944 5.34004 97.3308 4.88789 97.3308 4.11755C97.3308 3.34721 96.6944 2.89505 95.7566 2.89505H94.1908ZM108.487 8.02786V2.27543H109.14L111.276 6.28622L113.411 2.27543H114.064V8.02786H113.411V3.68214L111.276 7.69293L109.14 3.68214V8.02786H108.487ZM129.567 8.02786L128.989 6.72163H125.782L125.205 8.02786H124.493L127.03 2.27543H127.742L130.279 8.02786H129.567ZM126.05 6.10201H128.721L127.39 3.07926L126.05 6.10201ZM145.375 7.24915C144.872 7.75154 144.194 8.08648 143.449 8.12834L143.332 8.41303C143.365 8.40466 143.39 8.40466 143.424 8.40466C143.759 8.40466 144.002 8.63074 144.002 8.9573C144.002 9.36759 143.642 9.63553 143.181 9.63553C142.888 9.63553 142.612 9.53505 142.444 9.40108L142.603 9.0494C142.771 9.18337 142.963 9.24199 143.148 9.24199C143.39 9.24199 143.566 9.10801 143.566 8.9238C143.566 8.76471 143.466 8.63911 143.24 8.63911C143.139 8.63911 143.03 8.6726 142.955 8.73122L142.821 8.58887L143.022 8.1116C141.557 7.96088 140.359 6.66302 140.359 5.14746C140.359 3.53142 141.716 2.17495 143.307 2.17495C144.102 2.17495 144.839 2.50988 145.375 3.05414L144.931 3.5063C144.512 3.06252 143.935 2.77782 143.307 2.77782C142.067 2.77782 141.021 3.86635 141.021 5.14746C141.021 6.43694 142.067 7.52547 143.307 7.52547C143.935 7.52547 144.512 7.24078 144.931 6.79699L145.375 7.24915ZM157.606 1.23714C157.388 1.23714 157.254 1.40461 157.187 1.80653L156.802 1.74791C156.885 1.11154 157.145 0.751494 157.606 0.751494C158.1 0.751494 158.342 1.30413 158.686 1.30413C158.903 1.30413 159.037 1.13666 159.104 0.734747L159.49 0.79336C159.406 1.42973 159.146 1.78978 158.686 1.78978C158.192 1.78978 157.949 1.23714 157.606 1.23714ZM160.335 8.02786L159.757 6.72163H156.551L155.973 8.02786H155.261L157.798 2.27543H158.51L161.047 8.02786H160.335ZM156.818 6.10201H159.49L158.158 3.07926L156.818 6.10201ZM174.075 8.12834C172.484 8.12834 171.127 6.7635 171.127 5.14746C171.127 3.53142 172.484 2.17495 174.075 2.17495C175.674 2.17495 177.014 3.53142 177.014 5.14746C177.014 6.7635 175.674 8.12834 174.075 8.12834ZM174.075 7.52547C175.314 7.52547 176.352 6.43694 176.352 5.14746C176.352 3.86635 175.314 2.77782 174.075 2.77782C172.836 2.77782 171.789 3.86635 171.789 5.14746C171.789 6.43694 172.836 7.52547 174.075 7.52547Z" fill="white"></path><path d="M70.745 46.7744L62.8183 19.5462H70.1505L74.312 36.549L79.9796 19.5462H87.2721L92.9001 36.549L97.0616 19.5462H104.394L96.5067 46.7744H89.6898L83.6259 29.5338L77.5619 46.7744H70.745ZM114.99 41.8202C116.576 41.8202 118.399 41.1464 119.628 40.0763L123.591 44.0793C121.768 45.9421 118.24 47.25 115.189 47.25C108.847 47.25 104.171 42.7714 104.171 36.4697C104.171 30.2472 108.689 25.8083 114.872 25.8083C121.371 25.8083 125.176 30.5643 125.176 38.3721H110.552C111.186 40.433 112.811 41.8202 114.99 41.8202ZM114.99 31.1984C112.969 31.1984 111.344 32.3874 110.631 34.2898H118.954C118.399 32.4271 117.012 31.1984 114.99 31.1984ZM142.092 25.8083C147.601 25.8083 151.485 30.2472 151.485 36.5093C151.485 42.811 147.601 47.25 142.092 47.25C139.357 47.25 137.019 46.1006 135.394 44.1586V46.7744H128.656V19.0706H135.394V28.8997C137.019 26.9577 139.357 25.8083 142.092 25.8083ZM140.07 41.6617C142.964 41.6617 145.025 39.5215 145.025 36.5093C145.025 33.5368 142.964 31.3966 140.07 31.3966C137.296 31.3966 135.394 33.5368 135.394 36.5093C135.394 39.5215 137.296 41.6617 140.07 41.6617Z" fill="white"></path><path d="M155.369 46.7744V19.5462H168.012C173.996 19.5462 178.356 23.3906 178.356 28.8997C178.356 34.4087 173.996 38.2532 168.012 38.2532H162.146V46.7744H155.369ZM162.146 32.0704H167.378C169.716 32.0704 171.381 30.8021 171.381 28.8997C171.381 26.9973 169.716 25.729 167.378 25.729H162.146V32.0704Z" fill="#BD95FF"></path><path d="M31.1205 44.8568H7.00964C5.01011 44.8568 3.38267 43.2576 3.38267 41.2886V18.6756H48.9171V31.5083C48.9171 32.4272 49.6745 33.1722 50.6085 33.1722C51.5424 33.1722 52.2998 32.4272 52.2998 31.5083V10.5056C52.2998 6.71363 49.1652 3.62793 45.3089 3.62793H6.99084C3.13648 3.62793 0 6.71178 0 10.5056V41.2886C0 45.0916 3.144 48.1847 7.00964 48.1847H31.1205C32.0545 48.1847 32.8119 47.4397 32.8119 46.5208C32.8119 45.6019 32.0545 44.8568 31.1205 44.8568ZM6.99084 6.95582H45.3089C47.2991 6.95582 48.9171 8.54767 48.9171 10.5056V15.3477H3.38267V10.5056C3.38267 8.54952 5.00071 6.95582 6.99084 6.95582Z" fill="#C4C4C4"></path><path d="M9.18957 12.6262C10.024 12.6262 10.7005 11.9607 10.7005 11.1397C10.7005 10.3188 10.024 9.65326 9.18957 9.65326C8.35511 9.65326 7.67865 10.3188 7.67865 11.1397C7.67865 11.9607 8.35511 12.6262 9.18957 12.6262Z" fill="#C4C4C4"></path><path d="M14.5116 12.6262C15.3461 12.6262 16.0226 11.9607 16.0226 11.1397C16.0226 10.3188 15.3461 9.65326 14.5116 9.65326C13.6772 9.65326 13.0007 10.3188 13.0007 11.1397C13.0007 11.9607 13.6772 12.6262 14.5116 12.6262Z" fill="#C4C4C4"></path><path d="M19.8337 12.6262C20.6682 12.6262 21.3446 11.9607 21.3446 11.1397C21.3446 10.3188 20.6682 9.65326 19.8337 9.65326C18.9992 9.65326 18.3228 10.3188 18.3228 11.1397C18.3228 11.9607 18.9992 12.6262 19.8337 12.6262Z" fill="#C4C4C4"></path><path d="M53.6059 37.4264L37.4029 32.5769C36.2114 32.222 34.9148 32.5381 34.0315 33.4052C33.1464 34.276 32.8231 35.5462 33.1877 36.7239L38.117 52.6663C38.553 54.0751 39.8027 54.9995 41.2986 55.0199H41.3512C42.8246 55.0199 44.0761 54.1361 44.5497 52.7569L46.8537 46.0216L53.7036 43.7513C55.1224 43.2798 56.0245 42.0226 56.0019 40.5528C55.9794 39.0811 55.0379 37.8535 53.6059 37.4264ZM45.7731 42.8712C44.779 43.2022 43.9859 43.9824 43.6514 44.9585L41.3531 51.6975L36.4276 35.7643L52.623 40.6027L45.7731 42.8712Z" fill="#BD95FF"></path></svg>