<svg xmlns="http://www.w3.org/2000/svg" width="41" height="41" viewBox="0 0 41 41" fill="none"><path d="M12.378 26.3003L5.71908 3.16062C5.65757 2.94689 5.818 2.73379 6.0404 2.73379H10.5392C10.6896 2.73379 10.8215 2.83419 10.8615 2.97915L13.8172 13.6821C13.9009 13.9851 14.3186 14.0157 14.4455 13.728L19.3884 2.51975C19.4419 2.39854 19.5619 2.32031 19.6944 2.32031H20.7083C20.8394 2.32031 20.9583 2.39689 21.0126 2.51618L26.1121 13.7225C26.2429 14.0098 26.6622 13.9727 26.7404 13.6669L29.4729 2.98529C29.5108 2.8373 29.6441 2.73379 29.7969 2.73379H34.4348C34.6568 2.73379 34.8172 2.94627 34.7563 3.15982L28.1593 26.2995C28.1184 26.4431 27.9871 26.5422 27.8378 26.5422H26.7901C26.6586 26.5422 26.5394 26.4652 26.4853 26.3454L20.5039 13.0893C20.3856 12.8271 20.0135 12.8267 19.8946 13.0887L13.8803 26.346C13.8261 26.4655 13.707 26.5422 13.5758 26.5422H12.6993C12.5502 26.5422 12.4192 26.4435 12.378 26.3003Z" fill="#F5663E"></path><path d="M19.8791 35.084L17.6382 38.0114C17.5777 38.0904 17.4839 38.1367 17.3845 38.1367C17.2308 38.1367 17.0989 38.0273 17.0705 37.8762L15.1902 27.863C15.177 27.7925 15.1868 27.7197 15.2181 27.6552L19.9862 17.8347C20.1087 17.5823 20.4688 17.584 20.5891 17.8374L25.2453 27.6527C25.2767 27.7187 25.2855 27.7933 25.2704 27.8648L23.165 37.8712C23.1325 38.0259 22.996 38.1367 22.8378 38.1367H22.8317C22.7255 38.1367 22.6257 38.0863 22.5626 38.0009L20.4137 35.0888C20.2815 34.9096 20.0145 34.9073 19.8791 35.084Z" fill="url(#paint0_linear_127_571)"></path><defs><linearGradient id="paint0_linear_127_571" x1="20.2317" y1="17.208" x2="20.2317" y2="38.1367" gradientUnits="userSpaceOnUse"><stop stop-color="#FBAA4D"></stop><stop offset="1" stop-color="#F36B3F"></stop></linearGradient></defs></svg>