<svg xmlns="http://www.w3.org/2000/svg" width="56" height="56" viewBox="0 0 56 56" fill="none"><g clip-path="url(#clip0_19_111)"><path d="M10.0564 0.865234H45.9444C51.3854 0.865234 55.7846 5.32816 55.7846 10.8481V45.8468C55.7846 51.3667 51.3854 55.8296 45.9444 55.8296H10.0564C4.61535 55.8296 0.216187 51.3667 0.216187 45.8468V10.8481C0.216187 5.32816 4.61535 0.865234 10.0564 0.865234Z" fill="#001E36"></path><path d="M12.719 39.4104V15.2401C12.719 15.0757 12.7885 14.9818 12.9505 14.9818C13.3441 14.9818 13.7146 14.9818 14.2471 14.9583C14.8028 14.9348 15.3816 14.9348 16.0068 14.9113C16.6319 14.8878 17.3034 14.8878 18.0211 14.8643C18.7389 14.8408 19.4335 14.8408 20.1281 14.8408C22.0267 14.8408 23.6011 15.0757 24.8977 15.569C26.0554 15.9683 27.1205 16.626 28.0003 17.4951C28.7412 18.2467 29.3201 19.1628 29.6905 20.1728C30.0378 21.1594 30.223 22.1694 30.223 23.2264C30.223 25.2465 29.76 26.9142 28.8338 28.2296C27.9077 29.545 26.6111 30.5315 25.1061 31.0953C23.5317 31.6825 21.7952 31.8939 19.8966 31.8939C19.3409 31.8939 18.9704 31.8939 18.7389 31.8704C18.5074 31.8469 18.1832 31.8469 17.7433 31.8469V39.3869C17.7665 39.5513 17.6507 39.6922 17.4886 39.7157C17.4655 39.7157 17.4423 39.7157 17.396 39.7157H12.9968C12.8116 39.7157 12.719 39.6218 12.719 39.4104ZM17.7665 19.5151V27.4075C18.0906 27.431 18.3916 27.4544 18.6694 27.4544H19.8966C20.7996 27.4544 21.7026 27.3135 22.5592 27.0316C23.3001 26.8202 23.9484 26.374 24.4578 25.7867C24.944 25.1995 25.1756 24.4009 25.1756 23.3674C25.1987 22.6392 25.0135 21.911 24.6431 21.2768C24.2494 20.6661 23.6938 20.1963 23.0223 19.9379C22.1656 19.5856 21.2395 19.4447 20.2902 19.4682C19.6882 19.4682 19.1557 19.4682 18.7158 19.4917C18.2527 19.4682 17.9285 19.4917 17.7665 19.5151Z" fill="#31A8FF"></path><path d="M44.6708 25.9745C43.9762 25.5987 43.2353 25.3403 42.4481 25.1759C41.5914 24.988 40.7347 24.8706 39.8549 24.8706C39.3918 24.8471 38.9056 24.9175 38.4657 25.035C38.1647 25.1054 37.91 25.2699 37.7479 25.5048C37.6322 25.6927 37.5627 25.9276 37.5627 26.139C37.5627 26.3504 37.6553 26.5618 37.7942 26.7497C38.0026 27.0081 38.2805 27.2195 38.5814 27.3839C39.114 27.6658 39.6697 27.9241 40.2254 28.159C41.4756 28.5818 42.6796 29.1691 43.791 29.8737C44.5551 30.367 45.1802 31.0247 45.6201 31.8233C45.9906 32.575 46.1758 33.3971 46.1526 34.2427C46.1758 35.3467 45.8517 36.4507 45.2497 37.3667C44.6014 38.3063 43.6984 39.0345 42.6565 39.4573C41.5219 39.9505 40.1327 40.2089 38.4657 40.2089C37.4006 40.2089 36.3587 40.115 35.3168 39.9036C34.5064 39.7626 33.6961 39.5042 32.9551 39.1519C32.7931 39.058 32.6773 38.8935 32.7005 38.7056V34.6185C32.7005 34.5481 32.7236 34.4541 32.7931 34.4071C32.8625 34.3601 32.932 34.3836 33.0015 34.4306C33.9044 34.9709 34.8537 35.3467 35.8725 35.5816C36.7523 35.8165 37.6785 35.9339 38.6046 35.9339C39.4844 35.9339 40.1096 35.8165 40.5263 35.6051C40.8968 35.4406 41.1515 35.0413 41.1515 34.6185C41.1515 34.2897 40.9663 33.9843 40.5958 33.679C40.2253 33.3736 39.4613 33.0213 38.3268 32.575C37.1459 32.1522 36.0577 31.5884 35.039 30.8838C34.3212 30.367 33.7192 29.6858 33.2793 28.8872C32.9088 28.1355 32.7236 27.3134 32.7468 26.4913C32.7468 25.4813 33.0246 24.5182 33.534 23.6491C34.1128 22.7096 34.9695 21.9579 35.9651 21.4881C37.0533 20.9244 38.4194 20.666 40.0633 20.666C41.0126 20.666 41.985 20.7365 42.9343 20.8774C43.6289 20.9714 44.3004 21.1593 44.9255 21.4177C45.0181 21.4412 45.1107 21.5351 45.157 21.6291C45.1802 21.723 45.2034 21.817 45.2034 21.9109V25.7397C45.2034 25.8336 45.157 25.9276 45.0876 25.9745C44.8792 26.0215 44.7634 26.0215 44.6708 25.9745Z" fill="#31A8FF"></path></g><defs><clipPath id="clip0_19_111"><rect width="55.5684" height="54.9644" fill="white" transform="translate(0.216187 0.865234)"></rect></clipPath></defs></svg>