<svg xmlns="http://www.w3.org/2000/svg" width="56" height="56" viewBox="0 0 56 56" fill="none"><g clip-path="url(#clip0_19_121)"><path d="M27.9268 55.8296C12.6967 55.8296 0.329713 43.6913 0.44458 28.3474C0.559447 13.0036 12.1245 0.865234 27.9268 0.865234C43.7301 0.865234 55.409 13.2322 55.409 28.3474C55.409 43.4627 43.1569 55.8296 27.9268 55.8296ZM36.0566 51.5924L28.2703 30.6373L20.9414 52.0508C26.324 53.3112 29.988 53.6536 36.0566 51.5924ZM17.0488 50.4481L5.36883 18.5C3.76499 21.9353 3.42254 24.7984 3.1928 28.3474C3.30767 37.7365 8.57438 46.3247 17.0488 50.4481ZM52.547 28.3474C52.6608 22.2788 49.9136 17.4694 49.6839 16.7824C49.9136 21.478 49.2255 23.8816 48.4246 26.516L40.4086 49.5324C50.4858 43.4627 52.431 34.4161 52.6608 28.3474H52.547ZM27.1259 27.3169L23.2323 16.6675L20.3692 16.4388C19.2248 15.6369 19.9108 14.3777 20.7127 14.3777C25.8656 14.7212 28.7276 14.7212 33.8816 14.3777C35.1419 14.3777 35.4844 16.2102 33.9954 16.4388L31.2472 16.6675L40.1778 43.0043L44.414 28.5761C44.6437 22.2788 42.925 21.5918 40.6352 17.011C38.8027 13.4609 40.75 10.0256 44.3002 9.91182C41.436 7.1636 35.5971 3.72832 27.9246 3.61346C20.2522 3.49859 12.1224 7.39226 7.31299 14.7212L15.7874 14.4925C16.818 14.9509 16.3596 16.4388 15.7874 16.5537L12.8105 16.7824L21.7422 43.5775L27.1259 27.3169Z" fill="#21759B"></path></g><defs><clipPath id="clip0_19_121"><rect width="54.9644" height="54.9644" fill="white" transform="translate(0.443115 0.865234)"></rect></clipPath></defs></svg>