<svg xmlns="http://www.w3.org/2000/svg" width="61" height="30" viewBox="0 0 61 30" fill="none"><g clip-path="url(#clip0_127_591)"><path d="M13.064 19.3267C13.064 20.9961 13.4302 22.2777 13.9093 23.0531C14.5373 24.0687 15.4738 24.4998 16.4287 24.4998C17.6601 24.4998 18.7867 24.1942 20.9577 21.1914C22.6975 18.7846 24.7465 15.4064 26.1255 13.2885L28.4608 9.70036C30.083 7.20848 31.9607 4.43843 34.1136 2.56077C35.8716 1.02814 37.767 0.176758 39.6751 0.176758C42.8786 0.176758 45.93 2.03317 48.2653 5.51488C50.8211 9.32787 52.0616 14.1309 52.0616 19.0872C52.0616 22.0338 51.4809 24.1987 50.4925 25.9092C49.5379 27.5633 47.6769 29.216 44.5464 29.216V24.4991C47.2269 24.4991 47.8957 22.036 47.8957 19.2172C47.8957 15.2004 46.9592 10.7427 44.896 7.55753C43.4321 5.29823 41.5346 3.91778 39.4471 3.91778C37.1893 3.91778 35.3724 5.62091 33.3305 8.65669C32.2449 10.2699 31.1305 12.2356 29.8792 14.4539L28.5017 16.8942C25.7349 21.8012 25.0339 22.9183 23.6503 24.7621C21.2254 27.9911 19.1546 29.2153 16.4287 29.2153C13.1947 29.2153 11.1499 27.8149 9.88334 25.7046C8.84956 23.9852 8.34174 21.7288 8.34174 19.158L13.064 19.3267Z" fill="#0081FB"></path><path d="M12.0652 5.84683C14.2302 2.50962 17.3546 0.175781 20.9381 0.175781C23.0134 0.175781 25.0769 0.790007 27.2309 2.54917C29.5875 4.47206 32.0991 7.64025 35.2327 12.8595L36.3562 14.732C39.0686 19.2506 40.6116 21.5753 41.5149 22.6716C42.6763 24.0793 43.4897 24.499 44.5464 24.499C47.2269 24.499 47.8957 22.0359 47.8957 19.2171L52.0616 19.0864C52.0616 22.033 51.4809 24.198 50.4925 25.9084C49.5379 27.5625 47.6769 29.2152 44.5464 29.2152C42.6003 29.2152 40.8763 28.7926 38.9697 26.9938C37.5046 25.6134 35.7905 23.1611 34.4723 20.9565L30.5513 14.4068C28.5841 11.1198 26.7788 8.6689 25.7349 7.55894C24.6112 6.36528 23.1668 4.92403 20.8619 4.92403C18.9966 4.92403 17.4123 6.23306 16.0866 8.23543L12.0652 5.84683Z" fill="url(#paint0_linear_127_591)"></path><path d="M20.8619 4.92403C18.9965 4.92403 17.4123 6.23306 16.0866 8.23543C14.2119 11.0648 13.0649 15.2792 13.0649 19.3265C13.0649 20.9959 13.4312 22.2774 13.9102 23.0528L9.88334 25.7044C8.84956 23.985 8.34174 21.7286 8.34174 19.1578C8.34174 14.4826 9.62494 9.60983 12.0652 5.84683C14.2302 2.50962 17.3546 0.175781 20.9381 0.175781L20.8619 4.92403Z" fill="url(#paint1_linear_127_591)"></path></g><defs><linearGradient id="paint0_linear_127_591" x1="17.8192" y1="13.9429" x2="47.9225" y2="15.4633" gradientUnits="userSpaceOnUse"><stop stop-color="#0064E1"></stop><stop offset="0.4" stop-color="#0064E1"></stop><stop offset="0.83" stop-color="#0073EE"></stop><stop offset="1" stop-color="#0082FB"></stop></linearGradient><linearGradient id="paint1_linear_127_591" x1="14.6398" y1="21.309" x2="14.6398" y2="10.2103" gradientUnits="userSpaceOnUse"><stop stop-color="#0082FB"></stop><stop offset="1" stop-color="#0064E0"></stop></linearGradient><clipPath id="clip0_127_591"><rect width="60" height="29.04" fill="white" transform="translate(0.20166 0.175781)"></rect></clipPath></defs></svg>