<svg xmlns="http://www.w3.org/2000/svg" width="41" height="40" viewBox="0 0 41 40" fill="none"><g clip-path="url(#clip0_127_559)"><path d="M2.84511 1.72568L24.9783 0.0908771C27.6971 -0.142323 28.3955 0.014877 30.1051 1.25768L37.1703 6.23488C38.3355 7.09088 38.7235 7.32408 38.7235 8.25608V35.5533C38.7235 37.2641 38.1023 38.2761 35.9275 38.4305L10.2251 39.9873C8.59311 40.0645 7.81591 39.8313 6.96111 38.7421L1.75831 31.9765C0.825109 30.7313 0.438309 29.7993 0.438309 28.7097V4.44568C0.438309 3.04688 1.05951 1.88048 2.84511 1.72568Z" fill="white"></path><path fill-rule="evenodd" clip-rule="evenodd" d="M24.9783 0.0912771L2.84511 1.72608C1.05951 1.88048 0.438309 3.04728 0.438309 4.44568V28.7097C0.438309 29.7989 0.825109 30.7309 1.75831 31.9765L6.96111 38.7417C7.81591 39.8309 8.59311 40.0645 10.2251 39.9869L35.9279 38.4309C38.1011 38.2761 38.7239 37.2641 38.7239 35.5537V8.25648C38.7239 7.37248 38.3747 7.11768 37.3467 6.36328L30.1051 1.25768C28.3959 0.014877 27.6971 -0.142323 24.9783 0.0908771V0.0912771ZM10.8063 7.80968C8.70751 7.95088 8.23151 7.98288 7.03951 7.01368L4.00911 4.60328C3.70111 4.29128 3.85591 3.90208 4.63191 3.82448L25.9091 2.26968C27.6959 2.11368 28.6263 2.73648 29.3251 3.28048L32.9743 5.92448C33.1303 6.00328 33.5183 6.46848 33.0515 6.46848L11.0783 7.79128L10.8063 7.80968ZM8.35951 35.3205V12.1473C8.35951 11.1353 8.67031 10.6685 9.60071 10.5901L34.8383 9.11248C35.6943 9.03528 36.0811 9.57928 36.0811 10.5897V33.6085C36.0811 34.6205 35.9251 35.4765 34.5279 35.5537L10.3771 36.9537C8.97991 37.0309 8.35991 36.5657 8.35991 35.3205H8.35951ZM32.1995 13.3897C32.3543 14.0897 32.1995 14.7897 31.4995 14.8697L30.3355 15.1005V32.2097C29.3247 32.7537 28.3943 33.0645 27.6167 33.0645C26.3739 33.0645 26.0635 32.6753 25.1327 31.5097L17.5207 19.5337V31.1205L19.9287 31.6657C19.9287 31.6657 19.9287 33.0657 17.9859 33.0657L12.6299 33.3765C12.4739 33.0645 12.6299 32.2873 13.1727 32.1325L14.5715 31.7445V16.4245L12.6303 16.2673C12.4743 15.5673 12.8623 14.5565 13.9503 14.4781L19.6971 14.0913L27.6171 26.2221V15.4901L25.5983 15.2581C25.4423 14.4009 26.0635 13.7781 26.8395 13.7021L32.1995 13.3897Z" fill="black"></path></g><defs><clipPath id="clip0_127_559"><rect width="40" height="40" fill="white" transform="translate(0.438309 0.000976562)"></rect></clipPath></defs></svg>