<svg xmlns="http://www.w3.org/2000/svg" width="139" height="139" viewBox="0 0 139 139" fill="none"><circle cx="69.952" cy="69.316" r="69.0074" fill="white" fill-opacity="0.09"></circle><circle cx="69.952" cy="69.316" r="68.3543" stroke="white" stroke-opacity="0.25" stroke-width="1.30612"></circle><circle cx="69.9522" cy="69.316" r="30.6516" stroke="white" stroke-opacity="0.17" stroke-width="0.65306"></circle><path d="M23.5826 63.5394C23.3143 65.7041 21.2882 67.3033 19.1566 67.0391C17.0251 66.7749 15.4617 64.7309 15.73 62.5662C15.997 60.4125 18.012 58.8119 20.1436 59.0761C22.2752 59.3403 23.8495 61.3858 23.5826 63.5394ZM22.3235 63.3834C22.496 61.9918 21.4263 60.6705 19.9684 60.4898C18.5216 60.3105 17.1616 61.3306 16.9891 62.7222C16.8153 64.1248 17.8837 65.4572 19.3305 65.6365C20.7883 65.8172 22.1497 64.786 22.3235 63.3834Z" fill="#BD95FF"></path><path d="M25.6275 54.1459L19.6322 51.973L18.798 54.2749L17.6052 53.8426L19.7439 47.9415L20.9367 48.3738L20.1024 50.6756L26.0977 52.8485L25.6275 54.1459Z" fill="#BD95FF"></path><path d="M24.767 38.9443L25.5095 37.7679L31.975 41.8484L31.2326 43.0249L28.4751 41.2845L26.4377 44.5126L29.1953 46.2529L28.4528 47.4293L21.9872 43.3488L22.7297 42.1724L25.3649 43.8355L27.4022 40.6074L24.767 38.9443Z" fill="#BD95FF"></path><path d="M37.2482 36.2034C35.6835 37.7232 33.1024 37.7014 31.6059 36.1607C30.1094 34.62 30.1704 32.0474 31.735 30.5276C33.2917 29.0155 35.865 29.0293 37.3615 30.57C38.8581 32.1107 38.8048 34.6913 37.2482 36.2034ZM36.3642 35.2933C37.3701 34.3163 37.3633 32.6163 36.3397 31.5625C35.3239 30.5168 33.6248 30.4606 32.619 31.4376C31.6051 32.4224 31.6039 34.1302 32.6197 35.176C33.6433 36.2297 35.3504 36.2781 36.3642 35.2933Z" fill="#BD95FF"></path><path d="M43.4254 30.8774L39.6097 24.2521L40.8151 23.5578L46.9985 26.1996L44.3158 21.5417L45.5117 20.8529L49.3274 27.4782L48.1316 28.167L41.9482 25.5252L44.6309 30.1831L43.4254 30.8774Z" fill="#BD95FF"></path><path d="M60.551 24.0614C58.4166 24.5109 56.2459 23.1143 55.8032 21.0125C55.3606 18.9107 56.7859 16.7681 58.9204 16.3186C60.0203 16.087 61.1208 16.3442 61.9955 16.9334L61.2166 18.0414C60.6468 17.6041 59.9006 17.4087 59.1818 17.5601C57.7988 17.8513 56.8858 19.2946 57.1863 20.7212C57.489 22.1587 58.9065 23.1112 60.2896 22.8199C61.0192 22.6663 61.6124 22.1888 61.9683 21.5566L63.1147 22.2477C62.5542 23.1505 61.6509 23.8298 60.551 24.0614Z" fill="#BD95FF"></path><path d="M66.6286 23.1777L66.3042 15.5391L67.6829 15.4805L68.0074 23.1192L66.6286 23.1777Z" fill="#BD95FF"></path><path d="M71.6059 23.0889L72.4295 15.4878L75.7377 15.8463C77.3641 16.0226 78.4685 17.1945 78.3078 18.6771C78.1472 20.1597 76.8174 21.0678 75.191 20.8916L73.2658 20.683L72.9889 23.2388L71.6059 23.0889ZM73.4037 19.4106L75.174 19.6024C76.1144 19.7043 76.8188 19.2993 76.9027 18.5248C76.9866 17.7503 76.3854 17.2038 75.4449 17.1019L73.6747 16.9101L73.4037 19.4106Z" fill="#BD95FF"></path><path d="M86.8519 26.5041L86.7612 25.0105L83.2735 23.7908L82.2717 24.9024L80.8115 24.3917L86.3503 18.2291L87.8105 18.7398L88.3016 27.0111L86.8519 26.5041ZM84.143 22.8215L86.6852 23.7106L86.4758 20.2301L84.143 22.8215Z" fill="#BD95FF"></path><path d="M97.1787 32.3403L95.8517 31.4822L95.7336 28.3445L94.4907 27.5408L93.0948 29.6995L91.9266 28.9442L96.0781 22.5239L98.8724 24.3308C100.246 25.2191 100.706 26.7623 99.8963 28.0145C99.2679 28.9865 98.1583 29.3292 97.0458 29.0207L97.1787 32.3403ZM96.5513 24.354L95.1856 26.4661L96.6809 27.4329C97.4753 27.9466 98.2865 27.9013 98.7095 27.2471C99.1325 26.5929 98.841 25.8345 98.0466 25.3209L96.5513 24.354Z" fill="#BD95FF"></path><path d="M102.714 37.6453C101.212 36.0642 101.262 33.4835 102.819 32.0038C104.376 30.5242 106.947 30.6132 108.45 32.1943C109.945 33.7674 109.903 36.3404 108.346 37.8201C106.789 39.2998 104.209 39.2184 102.714 37.6453ZM103.634 36.7713C104.6 37.7878 106.3 37.7995 107.365 36.7875C108.422 35.7832 108.496 34.0848 107.53 33.0683C106.557 32.0438 104.849 32.024 103.792 33.0283C102.727 34.0403 102.66 35.7468 103.634 36.7713Z" fill="#BD95FF"></path><path d="M107.989 43.8929L114.67 40.1753L115.346 41.3909L112.614 47.5346L117.311 44.921L117.982 46.1268L111.301 49.8444L110.63 48.6386L113.362 42.4948L108.665 45.1085L107.989 43.8929Z" fill="#BD95FF"></path><path d="M112.703 53.5723L119.929 51.0756L120.38 52.3799L113.153 54.8766L112.703 53.5723Z" fill="#BD95FF"></path><path d="M118.674 61.6021C119.011 61.5484 119.26 61.6027 119.421 61.7649C119.589 61.9259 119.694 62.1383 119.736 62.4021C119.777 62.6585 119.742 62.8894 119.632 63.0947C119.53 63.2989 119.31 63.4278 118.973 63.4815C118.65 63.5328 118.401 63.4785 118.226 63.3187C118.057 63.1576 117.953 62.9489 117.912 62.6925C117.87 62.4287 117.904 62.1941 118.014 61.9888C118.131 61.7823 118.351 61.6534 118.674 61.6021Z" fill="white"></path><path d="M115.089 73.7788C115.299 71.6076 117.281 69.9545 119.419 70.1612C121.557 70.3679 123.175 72.3692 122.965 74.5404C122.756 76.7004 120.785 78.3546 118.647 78.1479C116.509 77.9412 114.88 75.9388 115.089 73.7788ZM116.352 73.9009C116.217 75.2966 117.322 76.5886 118.784 76.73C120.235 76.8703 121.567 75.814 121.702 74.4182C121.838 73.0114 120.734 71.7083 119.283 71.568C117.821 71.4266 116.488 72.4941 116.352 73.9009Z" fill="#BD95FF"></path><path d="M113.317 83.1844L119.367 85.1986L120.141 82.8756L121.344 83.2763L119.362 89.2317L118.158 88.8309L118.931 86.5079L112.881 84.4938L113.317 83.1844Z" fill="#BD95FF"></path><path d="M114.569 98.4065L113.857 99.6016L107.288 95.6887L108 94.4936L110.801 96.1624L112.755 92.883L109.954 91.2142L110.666 90.0191L117.234 93.932L116.522 95.1271L113.845 93.5323L111.891 96.8117L114.569 98.4065Z" fill="#BD95FF"></path><path d="M102.188 101.464C103.713 99.905 106.294 99.8612 107.829 101.363C109.364 102.865 109.369 105.439 107.843 106.998C106.326 108.549 103.753 108.601 102.217 107.099C100.682 105.596 100.67 103.015 102.188 101.464ZM103.094 102.351C102.114 103.354 102.164 105.053 103.214 106.08C104.256 107.1 105.956 107.113 106.936 106.111C107.925 105.1 107.883 103.393 106.841 102.374C105.791 101.346 104.083 101.341 103.094 102.351Z" fill="#BD95FF"></path><path d="M96.2925 106.889L100.278 113.414L99.0904 114.139L92.841 111.657L95.6428 116.244L94.4651 116.964L90.48 110.439L91.6577 109.72L97.9071 112.201L95.1053 107.614L96.2925 106.889Z" fill="#BD95FF"></path><path d="M79.4927 114.185C81.6143 113.679 83.8215 115.017 84.3201 117.106C84.8186 119.195 83.4509 121.375 81.3292 121.881C80.2359 122.142 79.1289 121.914 78.2388 121.349L78.9879 120.221C79.5691 120.642 80.3203 120.818 81.0348 120.647C82.4095 120.319 83.2837 118.852 82.9453 117.434C82.6043 116.005 81.1619 115.091 79.7871 115.419C79.0618 115.592 78.4816 116.085 78.1427 116.727L76.9783 116.066C77.5145 115.149 78.3993 114.446 79.4927 114.185Z" fill="#BD95FF"></path><path d="M73.2845 115.29L73.8149 122.917L72.4383 123.012L71.9078 115.385L73.2845 115.29Z" fill="#BD95FF"></path><path d="M68.4813 115.546L67.8627 123.167L64.5461 122.898C62.9155 122.765 61.78 121.623 61.9006 120.137C62.0213 118.651 63.3261 117.707 64.9567 117.839L66.8868 117.996L67.0948 115.434L68.4813 115.546ZM66.7832 119.272L65.0084 119.128C64.0656 119.051 63.3724 119.475 63.3094 120.251C63.2463 121.028 63.8621 121.558 64.8049 121.635L66.5797 121.779L66.7832 119.272Z" fill="#BD95FF"></path><path d="M52.8843 112.533L53.0143 114.023L56.533 115.151L57.5051 114.013L58.9783 114.485L53.6039 120.792L52.1307 120.32L51.4217 112.064L52.8843 112.533ZM55.6893 116.142L53.1246 115.321L53.4257 118.795L55.6893 116.142Z" fill="#BD95FF"></path><path d="M42.4596 107.02L43.8083 107.844L44.0069 110.978L45.2701 111.749L46.6101 109.555L47.7973 110.28L43.8121 116.805L40.9724 115.071C39.5762 114.218 39.0768 112.687 39.8541 111.415C40.4574 110.427 41.5578 110.056 42.6778 110.336L42.4596 107.02ZM43.292 114.988L44.603 112.841L43.0834 111.913C42.2761 111.42 41.4663 111.486 41.0603 112.151C40.6542 112.816 40.9651 113.567 41.7724 114.06L43.292 114.988Z" fill="#BD95FF"></path><path d="M36.7434 101.869C38.2858 103.411 38.3015 105.992 36.7827 107.511C35.2639 109.03 32.6907 109.006 31.1483 107.464C29.6138 105.929 29.5901 103.356 31.1089 101.837C32.6277 100.319 35.2089 100.334 36.7434 101.869ZM35.8463 102.766C34.8547 101.774 33.155 101.806 32.1162 102.845C31.0853 103.876 31.0538 105.575 32.0454 106.567C33.0448 107.566 34.7524 107.543 35.7833 106.512C36.8221 105.473 36.8457 103.765 35.8463 102.766Z" fill="#BD95FF"></path><path d="M31.3544 95.8738L24.786 99.7867L24.0741 98.5916L26.6245 92.37L22.0065 95.121L21.3003 93.9354L27.8687 90.0225L28.5749 91.2081L26.0245 97.4297L30.6425 94.6787L31.3544 95.8738Z" fill="#BD95FF"></path><path d="M26.2705 86.1615L19.1123 88.8474L18.6275 87.5554L25.7857 84.8694L26.2705 86.1615Z" fill="#BD95FF"></path><path d="M20.1542 77.9159C19.8187 77.9786 19.5683 77.931 19.403 77.7732C19.2304 77.6168 19.1195 77.4073 19.0705 77.1447C19.0228 76.8895 19.0512 76.6577 19.1558 76.4495C19.253 76.2427 19.4693 76.1079 19.8048 76.0452C20.1257 75.9853 20.3761 76.0329 20.556 76.188C20.7287 76.3444 20.8388 76.5503 20.8865 76.8055C20.9355 77.0681 20.9078 77.3035 20.8033 77.5117C20.6915 77.7212 20.4751 77.856 20.1542 77.9159Z" fill="white"></path><path fill-rule="evenodd" clip-rule="evenodd" d="M60.9066 59.8711C59.8709 59.9617 59.2581 60.0808 58.4853 60.3419C55.2722 61.4276 52.8587 64.2437 52.2598 67.6058C51.879 69.7436 52.2054 71.8747 53.2069 73.7888C53.648 74.6319 54.1297 75.287 54.8384 76.0077C55.787 76.9721 56.7672 77.6299 57.9932 78.1248C60.238 79.0309 62.8764 79.0045 65.044 78.0545C66.8805 77.2494 68.4683 75.7539 69.9719 73.4131C70.5189 72.5617 70.8827 71.9241 71.9351 69.9729C73.3972 67.2626 73.8924 66.4471 74.7034 65.4145C75.5477 64.3397 76.3573 63.6383 77.2786 63.1833C77.8706 62.891 78.4063 62.724 79.0774 62.6226C79.5127 62.5568 80.5449 62.5572 80.968 62.6233C81.8742 62.7648 82.7528 63.0856 83.4957 63.5461C84.3583 64.081 85.1909 64.9255 85.7108 65.7933L85.8566 66.0368L87.3101 66.0438C88.1096 66.0476 88.7637 66.0438 88.7637 66.0353C88.7637 65.9913 88.4997 65.374 88.3597 65.0906C87.8822 64.1247 87.3831 63.4253 86.6104 62.6397C86.0551 62.075 85.6213 61.7182 85.0068 61.321C83.3561 60.2538 81.3108 59.7321 79.3702 59.883C78.0868 59.9828 77.1443 60.2401 76.0591 60.7867C74.1773 61.7345 72.6246 63.3832 71.0002 66.1586C70.6135 66.8193 70.4683 67.0821 69.5798 68.7285C69.1663 69.4948 68.732 70.2922 68.6145 70.5005C66.8682 73.5981 65.3892 75.1221 63.5064 75.7634C63.217 75.862 62.6716 75.9874 62.3168 76.0371C61.9288 76.0913 60.8603 76.0839 60.4809 76.0243C59.0042 75.7924 57.748 75.1505 56.7147 74.0998C56.1493 73.5249 55.752 72.9564 55.4095 72.2319C54.7159 70.7648 54.5727 69.0422 55.0143 67.48C55.6783 65.1312 57.5103 63.338 59.8433 62.7532C60.4171 62.6094 60.7192 62.5748 61.3988 62.5754C61.7404 62.5757 62.1225 62.591 62.2635 62.6103C64.3773 62.8978 65.9708 64.0851 67.5705 66.5643C67.7193 66.7949 67.8865 67.0604 67.942 67.1543C67.9975 67.2481 68.0468 67.3209 68.0516 67.3161C68.0564 67.3112 68.2517 66.9583 68.4855 66.5319C68.7193 66.1054 69.0502 65.5213 69.2209 65.2338C69.4954 64.7714 69.5273 64.7049 69.4983 64.6571C69.4129 64.5165 68.843 63.7555 68.5967 63.4532C68.2543 63.0329 67.4207 62.184 67.0661 61.8943C65.6479 60.7359 64.208 60.1141 62.503 59.924C62.1474 59.8844 61.1376 59.8509 60.9066 59.8711ZM73.0375 72.1575C72.6995 72.7728 72.1215 73.7715 71.9879 73.9716L71.9243 74.0666L72.0289 74.2178C72.1808 74.4374 72.6423 75.0376 72.8189 75.2454C74.4773 77.1958 76.2252 78.2664 78.3605 78.64C78.9429 78.7419 79.3481 78.7748 80.0367 78.7759C80.6754 78.777 80.9921 78.752 81.5799 78.6541C84.5192 78.1648 87.1026 76.1953 88.4076 73.4493C88.6086 73.0261 88.8169 72.5166 88.8169 72.4477C88.8169 72.4129 88.6317 72.4077 87.3868 72.4078L85.9567 72.4081L85.8519 72.604C85.582 73.1087 85.1825 73.6434 84.734 74.1001C83.4223 75.4356 81.6641 76.1436 79.8239 76.0774C79.0943 76.0513 78.5654 75.962 77.9672 75.764C76.3573 75.2311 74.9944 74.0028 73.651 71.8738C73.5267 71.6768 73.4173 71.5154 73.4079 71.5153C73.3984 71.515 73.2318 71.8041 73.0375 72.1575Z" fill="white"></path></svg>