<svg xmlns="http://www.w3.org/2000/svg" width="50" height="36" viewBox="0 0 50 36" fill="none"><g clip-path="url(#clip0_127_599)"><path d="M33.3327 17.6655C28.761 15.2413 24.3835 13.0125 19.9088 10.6855V24.606C24.6175 22.0661 29.5806 19.7401 33.3522 17.6655H33.3327Z" fill="white"></path><path d="M33.3327 17.6655C28.761 15.2413 19.9088 10.6855 19.9088 10.6855L31.7111 18.5568C31.7111 18.5568 29.5612 19.7401 33.3327 17.6655Z" fill="#E8E0E0"></path><path d="M20.7691 35.5031C11.2731 35.3296 8.02977 35.1736 6.03621 34.766C4.68743 34.4952 3.51535 33.894 2.65594 33.0219C1.99173 32.3619 1.4635 31.355 1.05369 29.9579C0.702158 28.7939 0.565245 27.8255 0.370052 25.46C0.0712486 20.1213 1.69799e-05 15.7565 0.370052 10.8795C0.67533 8.18631 0.823344 4.98914 2.85113 3.1239C3.8086 2.25094 4.9224 1.68917 6.17312 1.45693C8.1269 1.08884 16.4508 0.797852 25.068 0.797852C33.6658 0.797852 42.0082 1.08884 43.9638 1.45693C45.5263 1.74791 46.9916 2.61995 47.852 3.74442C49.7021 6.63224 49.7345 10.2232 49.9223 13.0321C50 14.3704 50 21.97 49.9223 23.3084C49.63 27.7475 49.395 29.3181 48.7308 30.9465C48.3201 31.9746 47.9695 32.5171 47.3626 33.1183C46.4108 34.0436 45.1975 34.659 43.8843 34.8826C35.6667 35.4958 28.6888 35.6289 20.7691 35.5031ZM33.3531 17.6658C28.7813 15.2416 24.4038 12.9935 19.9292 10.6666V24.588C24.6378 22.048 29.6019 19.7211 33.3725 17.6465L33.3531 17.6658Z" fill="#CD201F"></path></g><defs><clipPath id="clip0_127_599"><rect width="50" height="34.8485" fill="white" transform="translate(0 0.789062)"></rect></clipPath></defs></svg>