<svg xmlns="http://www.w3.org/2000/svg" width="41" height="41" viewBox="0 0 41 41" fill="none"><g clip-path="url(#clip0_127_583)"><path d="M20.5791 0.420898C31.6254 0.420898 40.5795 9.37584 40.5795 20.4213C40.5795 31.4667 31.6254 40.4209 20.5791 40.4209C9.53291 40.4209 0.579544 31.4667 0.579544 20.4213C0.579544 9.37584 9.5337 0.420898 20.5791 0.420898Z" fill="#2196F3"></path><path fill-rule="evenodd" clip-rule="evenodd" d="M12.3158 14.7049H25.5433V24.4043C25.5433 25.8656 24.3591 27.0498 22.8978 27.0498H9.67027V17.3504C9.67027 15.8891 10.8545 14.7049 12.3158 14.7049ZM27.3062 18.2314L32.5972 14.7049V27.0498L27.307 23.5225L27.3062 18.2314Z" fill="white"></path></g><defs><clipPath id="clip0_127_583"><rect width="40" height="40" fill="white" transform="matrix(1 0 0 -1 0.579544 40.4209)"></rect></clipPath></defs></svg>